M48
; DRILL file KiCad 10.0.4 date 2026-07-14T22:32:15
; FORMAT={-:-/ absolute / metric / decimal}
; #@! TF.CreationDate,2026-07-14T22:32:15+02:00
; #@! TF.GenerationSoftware,Kicad,Pcbnew,10.0.4
; #@! TF.FileFunction,Plated,1,2,PTH
FMAT,2
METRIC
; #@! TA.AperFunction,Plated,PTH,ViaDrill
T1C0.300
; #@! TA.AperFunction,Plated,PTH,ComponentDrill
T2C1.000
; #@! TA.AperFunction,Plated,PTH,ComponentDrill
T3C1.200
; #@! TA.AperFunction,Plated,PTH,ComponentDrill
T4C1.300
; #@! TA.AperFunction,Plated,PTH,ComponentDrill
T5C1.500
; #@! TA.AperFunction,Plated,PTH,ComponentDrill
T6C1.700
%
G90
G05
T1
X58.67Y-62.545
X102.512Y-61.578
X137.945Y-51.548
T2
X49.5Y-61.0
X49.5Y-63.54
X49.5Y-66.08
X49.5Y-68.62
X53.65Y-74.5
X53.65Y-84.5
X66.35Y-74.5
X66.35Y-84.5
X98.973Y-60.96
X98.973Y-63.5
X98.973Y-66.04
X98.973Y-68.58
T3
X112.42Y-27.991
X112.42Y-30.531
X112.42Y-33.071
X112.42Y-35.611
X112.42Y-38.151
X112.42Y-40.691
X112.42Y-43.231
X112.42Y-45.771
X112.42Y-48.311
X112.42Y-50.851
X112.42Y-53.391
X112.42Y-55.931
X112.42Y-58.471
X112.42Y-61.011
X112.42Y-63.551
X112.42Y-66.091
X112.42Y-68.631
X112.42Y-71.171
X134.92Y-38.151
X134.92Y-40.691
X134.92Y-43.231
X134.92Y-45.771
X134.92Y-48.311
X134.92Y-50.851
X134.92Y-53.391
X134.92Y-55.931
X134.92Y-58.471
X134.92Y-61.011
X134.92Y-63.551
X134.92Y-66.091
X134.92Y-68.631
X134.92Y-71.171
T4
X68.2Y-24.25
X75.6Y-66.75
X78.058Y-89.535
X83.058Y-89.535
X83.4Y-66.75
X90.8Y-24.25
T5
X51.412Y-24.525
X51.412Y-56.075
X58.612Y-24.525
X58.612Y-56.075
T6
X70.6Y-74.0
X77.36Y-74.0
X84.64Y-74.0
X91.4Y-74.0
M30
