%TF.GenerationSoftware,KiCad,Pcbnew,10.0.4*%
%TF.CreationDate,2026-07-14T22:31:55+02:00*%
%TF.ProjectId,monitoring v0.2,6d6f6e69-746f-4726-996e-672076302e32,rev?*%
%TF.SameCoordinates,Original*%
%TF.FileFunction,Copper,L1,Top*%
%TF.FilePolarity,Positive*%
%FSLAX46Y46*%
G04 Gerber Fmt 4.6, Leading zero omitted, Abs format (unit mm)*
G04 Created by KiCad (PCBNEW 10.0.4) date 2026-07-14 22:31:55*
%MOMM*%
%LPD*%
G01*
G04 APERTURE LIST*
G04 Aperture macros list*
%AMRoundRect*
0 Rectangle with rounded corners*
0 $1 Rounding radius*
0 $2 $3 $4 $5 $6 $7 $8 $9 X,Y pos of 4 corners*
0 Add a 4 corners polygon primitive as box body*
4,1,4,$2,$3,$4,$5,$6,$7,$8,$9,$2,$3,0*
0 Add four circle primitives for the rounded corners*
1,1,$1+$1,$2,$3*
1,1,$1+$1,$4,$5*
1,1,$1+$1,$6,$7*
1,1,$1+$1,$8,$9*
0 Add four rect primitives between the rounded corners*
20,1,$1+$1,$2,$3,$4,$5,0*
20,1,$1+$1,$4,$5,$6,$7,0*
20,1,$1+$1,$6,$7,$8,$9,0*
20,1,$1+$1,$8,$9,$2,$3,0*%
%AMFreePoly0*
4,1,13,2.503536,1.503536,2.505000,1.500000,2.505000,-1.500000,2.503536,-1.503536,2.500000,-1.505000,-2.500000,-1.505000,-2.503536,-1.503536,-2.505000,-1.500000,-2.505000,1.500000,-2.503536,1.503536,-2.500000,1.505000,2.500000,1.505000,2.503536,1.503536,2.503536,1.503536,$1*%
G04 Aperture macros list end*
%TA.AperFunction,ComponentPad*%
%ADD10C,1.700000*%
%TD*%
%TA.AperFunction,ComponentPad*%
%ADD11R,1.700000X1.700000*%
%TD*%
%TA.AperFunction,ComponentPad*%
%ADD12C,1.800000*%
%TD*%
%TA.AperFunction,ComponentPad*%
%ADD13R,1.800000X1.800000*%
%TD*%
%TA.AperFunction,ComponentPad*%
%ADD14FreePoly0,90.000000*%
%TD*%
%TA.AperFunction,SMDPad,CuDef*%
%ADD15RoundRect,0.249999X0.450001X1.425001X-0.450001X1.425001X-0.450001X-1.425001X0.450001X-1.425001X0*%
%TD*%
%TA.AperFunction,ComponentPad*%
%ADD16C,1.508000*%
%TD*%
%TA.AperFunction,ComponentPad*%
%ADD17R,1.508000X1.508000*%
%TD*%
%TA.AperFunction,SMDPad,CuDef*%
%ADD18RoundRect,0.237500X-0.237500X0.250000X-0.237500X-0.250000X0.237500X-0.250000X0.237500X0.250000X0*%
%TD*%
%TA.AperFunction,SMDPad,CuDef*%
%ADD19RoundRect,0.237500X-0.250000X-0.237500X0.250000X-0.237500X0.250000X0.237500X-0.250000X0.237500X0*%
%TD*%
%TA.AperFunction,ComponentPad*%
%ADD20R,1.950000X1.950000*%
%TD*%
%TA.AperFunction,ComponentPad*%
%ADD21C,1.950000*%
%TD*%
%TA.AperFunction,ComponentPad*%
%ADD22RoundRect,0.250001X1.149999X1.149999X-1.149999X1.149999X-1.149999X-1.149999X1.149999X-1.149999X0*%
%TD*%
%TA.AperFunction,ComponentPad*%
%ADD23C,2.800000*%
%TD*%
%TA.AperFunction,ComponentPad*%
%ADD24RoundRect,0.675000X-0.675000X-0.675000X0.675000X-0.675000X0.675000X0.675000X-0.675000X0.675000X0*%
%TD*%
%TA.AperFunction,ComponentPad*%
%ADD25C,2.700000*%
%TD*%
%TA.AperFunction,SMDPad,CuDef*%
%ADD26RoundRect,0.237500X0.237500X-0.300000X0.237500X0.300000X-0.237500X0.300000X-0.237500X-0.300000X0*%
%TD*%
%TA.AperFunction,SMDPad,CuDef*%
%ADD27RoundRect,0.237500X-0.237500X0.300000X-0.237500X-0.300000X0.237500X-0.300000X0.237500X0.300000X0*%
%TD*%
%TA.AperFunction,ViaPad*%
%ADD28C,0.600000*%
%TD*%
%TA.AperFunction,Conductor*%
%ADD29C,1.500000*%
%TD*%
%TA.AperFunction,Conductor*%
%ADD30C,1.000000*%
%TD*%
G04 APERTURE END LIST*
D10*
%TO.P,J2,4,Pin_4_4*%
%TO.N,/5v*%
X49500000Y-68620000D03*
%TO.P,J2,3,Pin_3_3*%
%TO.N,/ZMPT101B*%
X49500000Y-66080000D03*
%TO.P,J2,2,Pin_2_2*%
%TO.N,/2v-28v*%
X49500000Y-63540000D03*
D11*
%TO.P,J2,1,Pin_1_1*%
%TO.N,GND*%
X49500000Y-61000000D03*
%TD*%
D12*
%TO.P,U1,32,VCC_32*%
%TO.N,/5v*%
X134920400Y-38150800D03*
%TO.P,U1,31,3.3V_31*%
%TO.N,3.3V*%
X134920400Y-40690800D03*
%TO.P,U1,30,GND_30*%
%TO.N,GND*%
X134920400Y-43230800D03*
%TO.P,U1,29,SCL_29*%
%TO.N,unconnected-(U1-SCL-Pad29)*%
X134920400Y-45770800D03*
%TO.P,U1,28,SDA_28*%
%TO.N,unconnected-(U1-SDA-Pad10)*%
X134920400Y-48310800D03*
%TO.P,U1,27,A4_27*%
%TO.N,unconnected-(U1-A4-Pad27)*%
X134920400Y-50850800D03*
%TO.P,U1,26,A3_26*%
%TO.N,Net-(U1-A3)*%
X134920400Y-53390800D03*
%TO.P,U1,25,A2_25*%
%TO.N,unconnected-(U1-A2-Pad25)*%
X134920400Y-55930800D03*
%TO.P,U1,24,A1_24*%
%TO.N,unconnected-(U1-A1-Pad24)*%
X134920400Y-58470800D03*
%TO.P,U1,23,A0_23*%
%TO.N,unconnected-(U1-A0-Pad23)*%
X134920400Y-61010800D03*
%TO.P,U1,22,D13_22*%
%TO.N,unconnected-(U1-D13-Pad22)*%
X134920400Y-63550800D03*
%TO.P,U1,21,D12_21*%
%TO.N,unconnected-(U1-D12-Pad21)*%
X134920400Y-66090800D03*
%TO.P,U1,20,D11_20*%
%TO.N,unconnected-(U1-D11-Pad20)*%
X134920400Y-68630800D03*
%TO.P,U1,19,D10_19*%
%TO.N,unconnected-(U1-D10-Pad19)*%
X134920400Y-71170800D03*
%TO.P,U1,18,RX_18*%
%TO.N,unconnected-(U1-RX-Pad18)*%
X112420400Y-71170800D03*
%TO.P,U1,17,TX_17*%
%TO.N,unconnected-(U1-TX-Pad17)*%
X112420400Y-68630800D03*
%TO.P,U1,16,D2_16*%
%TO.N,unconnected-(U1-D2-Pad16)*%
X112420400Y-66090800D03*
%TO.P,U1,15,D3_15*%
%TO.N,unconnected-(U1-D3-Pad15)*%
X112420400Y-63550800D03*
%TO.P,U1,14,D5_14*%
%TO.N,unconnected-(U1-D5-Pad14)*%
X112420400Y-61010800D03*
%TO.P,U1,13,D6_13*%
%TO.N,unconnected-(U1-D6-Pad13)*%
X112420400Y-58470800D03*
%TO.P,U1,12,D7_12*%
%TO.N,unconnected-(U1-D7-Pad12)*%
X112420400Y-55930800D03*
%TO.P,U1,11,D9_11*%
%TO.N,unconnected-(U1-D9-Pad11)*%
X112420400Y-53390800D03*
%TO.P,U1,10,SDA_10*%
%TO.N,unconnected-(U1-SDA-Pad10)_1*%
X112420400Y-50850800D03*
%TO.P,U1,9,SCL_9*%
%TO.N,unconnected-(U1-SCL-Pad29)_1*%
X112420400Y-48310800D03*
%TO.P,U1,8,MISO_8*%
%TO.N,unconnected-(U1-MISO-Pad8)*%
X112420400Y-45770800D03*
%TO.P,U1,7,MOSI_7*%
%TO.N,unconnected-(U1-MOSI-Pad7)*%
X112420400Y-43230800D03*
%TO.P,U1,6,SCK_6*%
%TO.N,unconnected-(U1-SCK-Pad6)*%
X112420400Y-40690800D03*
%TO.P,U1,5,EN_5*%
%TO.N,unconnected-(U1-EN-Pad5)*%
X112420400Y-38150800D03*
%TO.P,U1,4,GND_4*%
%TO.N,GND*%
X112420400Y-35610800D03*
%TO.P,U1,3,NC_3*%
%TO.N,unconnected-(U1-NC-Pad3)*%
X112420400Y-33070800D03*
%TO.P,U1,2,3.3V_2*%
%TO.N,3.3V*%
X112420400Y-30530800D03*
D13*
%TO.P,U1,1,RESET_1*%
%TO.N,unconnected-(U1-RESET-Pad1)*%
X112420400Y-27990800D03*
%TD*%
D14*
%TO.P,U2,VIN_P,VIN+_VIN_P*%
%TO.N,/5v*%
X51412375Y-24525000D03*
%TO.P,U2,VIN_N,VIN-_VIN_N*%
%TO.N,GND*%
X58612375Y-24525000D03*
%TO.P,U2,VOUT_P,VOUT+_VOUT_P*%
%TO.N,/2v-28v*%
X51412375Y-56075000D03*
%TO.P,U2,VOUT_N,VOUT-_VOUT_N*%
%TO.N,GND*%
X58612375Y-56075000D03*
%TD*%
D15*
%TO.P,R1,1*%
%TO.N,Net-(PS1-AC2)*%
X76050000Y-79500000D03*
%TO.P,R1,2*%
%TO.N,Net-(R1-Pad2)*%
X69950000Y-79500000D03*
%TD*%
D16*
%TO.P,T1,3*%
%TO.N,Net-(C1-Pad1)*%
X66350000Y-74500000D03*
%TO.P,T1,2*%
%TO.N,Net-(R1-Pad2)*%
X66350000Y-84500000D03*
%TO.P,T1,4*%
%TO.N,GND*%
X53650000Y-74500000D03*
D17*
%TO.P,T1,1*%
%TO.N,/N*%
X53650000Y-84500000D03*
%TD*%
D18*
%TO.P,R5,1*%
%TO.N,Net-(U1-A3)*%
X137945400Y-54823300D03*
%TO.P,R5,2*%
%TO.N,/ZMPT101B*%
X137945400Y-56648300D03*
%TD*%
D19*
%TO.P,R4,1*%
%TO.N,GND*%
X57775000Y-64000000D03*
%TO.P,R4,2*%
%TO.N,/ZMPT101B*%
X59600000Y-64000000D03*
%TD*%
%TO.P,R3,1*%
%TO.N,/ZMPT101B*%
X61187500Y-64000000D03*
%TO.P,R3,2*%
%TO.N,/5v*%
X63012500Y-64000000D03*
%TD*%
%TO.P,R2,1*%
%TO.N,GND*%
X59425000Y-68900000D03*
%TO.P,R2,2*%
%TO.N,Net-(C1-Pad1)*%
X61250000Y-68900000D03*
%TD*%
D20*
%TO.P,PS1,1,AC1_1*%
%TO.N,/N*%
X75600000Y-66750000D03*
D21*
%TO.P,PS1,2,AC2_2*%
%TO.N,Net-(PS1-AC2)*%
X83400000Y-66750000D03*
%TO.P,PS1,3,-VO_3*%
%TO.N,GND*%
X68200000Y-24250000D03*
%TO.P,PS1,4,+VO_4*%
%TO.N,/5v*%
X90800000Y-24250000D03*
%TD*%
D22*
%TO.P,J1,1,Pin_1_1*%
%TO.N,/L*%
X83058000Y-89535000D03*
D23*
%TO.P,J1,2,Pin_2_2*%
%TO.N,/N*%
X78058000Y-89535000D03*
%TD*%
D24*
%TO.P,F1,1*%
%TO.N,Net-(PS1-AC2)*%
X70600000Y-74000000D03*
X77360000Y-74000000D03*
D25*
%TO.P,F1,2*%
%TO.N,/L*%
X84640000Y-74000000D03*
X91400000Y-74000000D03*
%TD*%
D26*
%TO.P,C3,1*%
%TO.N,Net-(U1-A3)*%
X137945400Y-53272800D03*
%TO.P,C3,2*%
%TO.N,GND*%
X137945400Y-51547800D03*
%TD*%
D27*
%TO.P,C2,1*%
%TO.N,GND*%
X63050000Y-60725000D03*
%TO.P,C2,2*%
%TO.N,/5v*%
X63050000Y-62450000D03*
%TD*%
D26*
%TO.P,C1,1*%
%TO.N,Net-(C1-Pad1)*%
X61200000Y-67312500D03*
%TO.P,C1,2*%
%TO.N,/ZMPT101B*%
X61200000Y-65587500D03*
%TD*%
D11*
%TO.P,J3,1,Pin_1_1*%
%TO.N,GND*%
X98973400Y-60959800D03*
D10*
%TO.P,J3,2,Pin_2_2*%
%TO.N,unconnected-(J3-Pin_2-Pad2)*%
X98973400Y-63499800D03*
%TO.P,J3,3,Pin_3_3*%
%TO.N,/ZMPT101B*%
X98973400Y-66039800D03*
%TO.P,J3,4,Pin_4_4*%
%TO.N,/5v*%
X98973400Y-68579800D03*
%TD*%
D28*
%TO.N,/5v*%
X58669589Y-62544589D03*
%TO.N,GND*%
X102512400Y-61577800D03*
X137945400Y-51547800D03*
%TD*%
%TO.N,/L*%
D29*
X84640000Y-74000000D02*
X91400000Y-74000000D01*
%TO.N,Net-(PS1-AC2)*%
X73675000Y-70925000D02*
X73675000Y-70315000D01*
X70600000Y-74000000D02*
X73675000Y-70925000D01*
%TO.N,/5v*%
D30*
X63050000Y-62450000D02*
X58764178Y-62450000D01*
%TO.N,GND*%
D29*
X127185800Y-35610800D02*
X112420400Y-35610800D01*
X134805800Y-43230800D02*
X127185800Y-35610800D01*
X134920400Y-43230800D02*
X134805800Y-43230800D01*
%TO.N,Net-(C1-Pad1)*%
D30*
X61250000Y-67362500D02*
X61200000Y-67312500D01*
X61250000Y-68900000D02*
X61250000Y-67362500D01*
X61250000Y-69400000D02*
X61250000Y-68900000D01*
%TO.N,/5v*%
D29*
X55662375Y-20275000D02*
X51412375Y-24525000D01*
X90800000Y-24250000D02*
X86825000Y-20275000D01*
X86825000Y-20275000D02*
X55662375Y-20275000D01*
X118723400Y-21953800D02*
X134920400Y-38150800D01*
X96924400Y-66536385D02*
X96924400Y-21953800D01*
X98973400Y-68579800D02*
X98967815Y-68579800D01*
X98967815Y-68579800D02*
X96924400Y-66536385D01*
X96924400Y-21953800D02*
X118723400Y-21953800D01*
%TO.N,GND*%
D30*
X67804000Y-75102267D02*
X67804000Y-65004000D01*
X66952267Y-75954000D02*
X67804000Y-75102267D01*
X63525000Y-60725000D02*
X63050000Y-60725000D01*
X55104000Y-75954000D02*
X66952267Y-75954000D01*
X53650000Y-74500000D02*
X55104000Y-75954000D01*
X67804000Y-65004000D02*
X63525000Y-60725000D01*
D29*
X58887375Y-24250000D02*
X58612375Y-24525000D01*
X68200000Y-24250000D02*
X58887375Y-24250000D01*
X54775000Y-59912375D02*
X54775000Y-61000000D01*
X58612375Y-56075000D02*
X54775000Y-59912375D01*
%TO.N,/2v-28v*%
X47450000Y-58522375D02*
X47450000Y-62550000D01*
X51412375Y-56075000D02*
X49897375Y-56075000D01*
X49897375Y-56075000D02*
X47450000Y-58522375D01*
%TO.N,/ZMPT101B*%
X107156481Y-73020800D02*
X136765900Y-73020800D01*
X136765900Y-73020800D02*
X137945400Y-71841300D01*
X100175481Y-66039800D02*
X107156481Y-73020800D01*
%TO.N,Net-(U1-A3)*%
X135038400Y-53272800D02*
X134920400Y-53390800D01*
X137945400Y-53272800D02*
X135038400Y-53272800D01*
%TO.N,GND*%
X136727692Y-43230800D02*
X134920400Y-43230800D01*
X137945400Y-44448508D02*
X136727692Y-43230800D01*
%TO.N,/N*%
X55650000Y-86500000D02*
X78045000Y-86500000D01*
X78058000Y-86487000D02*
X78058000Y-83724500D01*
X78045000Y-86500000D02*
X78058000Y-86487000D01*
%TO.N,GND*%
X101894400Y-60959800D02*
X102512400Y-61577800D01*
X98973400Y-60959800D02*
X101894400Y-60959800D01*
%TO.N,/ZMPT101B*%
X100175481Y-66039800D02*
X98973400Y-66039800D01*
X137945400Y-56648300D02*
X137945400Y-71841300D01*
%TO.N,Net-(U1-A3)*%
X137945400Y-54823300D02*
X137945400Y-53272800D01*
%TO.N,GND*%
X135352400Y-43128300D02*
X135267400Y-43128300D01*
%TO.N,Net-(U1-A3)*%
X135367900Y-53272800D02*
X135352400Y-53288300D01*
%TO.N,GND*%
X137945400Y-51547800D02*
X137945400Y-44448508D01*
X58039000Y-60725000D02*
X49775000Y-60725000D01*
X68200000Y-55575000D02*
X63050000Y-60725000D01*
X68200000Y-24250000D02*
X68200000Y-55575000D01*
%TO.N,/N*%
X78058000Y-83724500D02*
X81000000Y-80782500D01*
X78058000Y-89535000D02*
X78058000Y-86487000D01*
%TO.N,/L*%
X91440000Y-84709000D02*
X91440000Y-74040000D01*
X86614000Y-89535000D02*
X91440000Y-84709000D01*
X83058000Y-89535000D02*
X86614000Y-89535000D01*
X91440000Y-74040000D02*
X91400000Y-74000000D01*
%TO.N,GND*%
X54775000Y-61000000D02*
X49500000Y-61000000D01*
X57775000Y-64000000D02*
X54775000Y-61000000D01*
X49775000Y-60725000D02*
X49500000Y-61000000D01*
X63050000Y-60725000D02*
X58039000Y-60725000D01*
%TO.N,/ZMPT101B*%
D30*
X52470000Y-66080000D02*
X49500000Y-66080000D01*
X52500000Y-66050000D02*
X52470000Y-66080000D01*
X58600000Y-66050000D02*
X52500000Y-66050000D01*
X60650000Y-64000000D02*
X58600000Y-66050000D01*
%TO.N,/2v-28v*%
D29*
X48440000Y-63540000D02*
X47450000Y-62550000D01*
X49500000Y-63540000D02*
X48440000Y-63540000D01*
%TO.N,/5v*%
D30*
X63050000Y-63962500D02*
X63012500Y-64000000D01*
X63050000Y-62450000D02*
X63050000Y-63962500D01*
%TO.N,/ZMPT101B*%
X60650000Y-64000000D02*
X59600000Y-64000000D01*
X61187500Y-64000000D02*
X60650000Y-64000000D01*
X61200000Y-64012500D02*
X61187500Y-64000000D01*
X61200000Y-65587500D02*
X61200000Y-64012500D01*
%TO.N,GND*%
X59250000Y-68900000D02*
X53650000Y-74500000D01*
X59425000Y-68900000D02*
X59250000Y-68900000D01*
%TO.N,Net-(C1-Pad1)*%
X61250000Y-69400000D02*
X66350000Y-74500000D01*
%TO.N,/N*%
D29*
X55650000Y-86500000D02*
X53650000Y-84500000D01*
%TO.N,Net-(R1-Pad2)*%
X69950000Y-80900000D02*
X66350000Y-84500000D01*
X69950000Y-79500000D02*
X69950000Y-80900000D01*
%TO.N,Net-(PS1-AC2)*%
X77360000Y-78190000D02*
X76050000Y-79500000D01*
X77360000Y-74000000D02*
X77360000Y-78190000D01*
X73675000Y-64825000D02*
X81475000Y-64825000D01*
X73675000Y-70315000D02*
X73675000Y-64825000D01*
X81475000Y-64825000D02*
X83400000Y-66750000D01*
X77360000Y-74000000D02*
X73675000Y-70315000D01*
%TO.N,/N*%
X77250000Y-66750000D02*
X75600000Y-66750000D01*
X81000000Y-80782500D02*
X81000000Y-70500000D01*
X81000000Y-70500000D02*
X77250000Y-66750000D01*
%TD*%
M02*
