%TF.GenerationSoftware,KiCad,Pcbnew,10.0.4*%
%TF.CreationDate,2026-07-14T22:31:55+02:00*%
%TF.ProjectId,monitoring v0.2,6d6f6e69-746f-4726-996e-672076302e32,rev?*%
%TF.SameCoordinates,Original*%
%TF.FileFunction,Profile,NP*%
%FSLAX46Y46*%
G04 Gerber Fmt 4.6, Leading zero omitted, Abs format (unit mm)*
G04 Created by KiCad (PCBNEW 10.0.4) date 2026-07-14 22:31:55*
%MOMM*%
%LPD*%
G01*
G04 APERTURE LIST*
%TA.AperFunction,Profile*%
%ADD10C,0.050000*%
%TD*%
G04 APERTURE END LIST*
D10*
X94550000Y-22400000D02*
X95600000Y-22400000D01*
X94550000Y-22400000D02*
X94550000Y-16975000D01*
X95600000Y-16975000D02*
X94550000Y-16975000D01*
X95600000Y-22400000D02*
X95600000Y-16975000D01*
X94550000Y-33250000D02*
X95600000Y-33250000D01*
X94550000Y-33250000D02*
X94550000Y-27825000D01*
X95600000Y-27825000D02*
X94550000Y-27825000D01*
X95600000Y-33250000D02*
X95600000Y-27825000D01*
X94550000Y-44100000D02*
X95600000Y-44100000D01*
X94550000Y-44100000D02*
X94550000Y-38675000D01*
X95600000Y-38675000D02*
X94550000Y-38675000D01*
X95600000Y-44100000D02*
X95600000Y-38675000D01*
X94550000Y-54950000D02*
X95600000Y-54950000D01*
X94550000Y-54950000D02*
X94550000Y-49525000D01*
X95600000Y-49525000D02*
X94550000Y-49525000D01*
X95600000Y-54950000D02*
X95600000Y-49525000D01*
X94550000Y-65800000D02*
X95600000Y-65800000D01*
X94550000Y-65800000D02*
X94550000Y-60375000D01*
X95600000Y-60375000D02*
X94550000Y-60375000D01*
X95600000Y-65800000D02*
X95600000Y-60375000D01*
X94550000Y-76650000D02*
X95600000Y-76650000D01*
X94550000Y-76650000D02*
X94550000Y-71225000D01*
X95600000Y-71225000D02*
X94550000Y-71225000D01*
X95600000Y-76650000D02*
X95600000Y-71225000D01*
X95600000Y-82075000D02*
X94550000Y-82075000D01*
X94550000Y-87500000D02*
X94550000Y-82075000D01*
X95600000Y-87500000D02*
X95600000Y-82075000D01*
X94550000Y-87500000D02*
X95600000Y-87500000D01*
X95600000Y-94850000D02*
X143700000Y-94900000D01*
X95600000Y-92925000D02*
X95600000Y-94850000D01*
X94550000Y-92925000D02*
X95600000Y-92925000D01*
X94550000Y-94850000D02*
X94550000Y-92925000D01*
X143925000Y-14900000D02*
X143700000Y-94900000D01*
X95554800Y-14900000D02*
X143925000Y-14900000D01*
X95554800Y-16814800D02*
X95554800Y-14900000D01*
X94550000Y-16814800D02*
X95554800Y-16814800D01*
X94550000Y-14900000D02*
X94550000Y-16814800D01*
X142189400Y-91732800D02*
G75*
G02*
X137189400Y-91732800I-2500000J0D01*
G01*
X137189400Y-91732800D02*
G75*
G02*
X142189400Y-91732800I2500000J0D01*
G01*
X101389400Y-91632800D02*
G75*
G02*
X96389400Y-91632800I-2500000J0D01*
G01*
X96389400Y-91632800D02*
G75*
G02*
X101389400Y-91632800I2500000J0D01*
G01*
X101889400Y-18082800D02*
G75*
G02*
X96889400Y-18082800I-2500000J0D01*
G01*
X96889400Y-18082800D02*
G75*
G02*
X101889400Y-18082800I2500000J0D01*
G01*
X141939400Y-17932800D02*
G75*
G02*
X136939400Y-17932800I-2500000J0D01*
G01*
X136939400Y-17932800D02*
G75*
G02*
X141939400Y-17932800I2500000J0D01*
G01*
X52450000Y-18050000D02*
G75*
G02*
X47450000Y-18050000I-2500000J0D01*
G01*
X47450000Y-18050000D02*
G75*
G02*
X52450000Y-18050000I2500000J0D01*
G01*
X92500000Y-17900000D02*
G75*
G02*
X87500000Y-17900000I-2500000J0D01*
G01*
X87500000Y-17900000D02*
G75*
G02*
X92500000Y-17900000I2500000J0D01*
G01*
X92750000Y-91700000D02*
G75*
G02*
X87750000Y-91700000I-2500000J0D01*
G01*
X87750000Y-91700000D02*
G75*
G02*
X92750000Y-91700000I2500000J0D01*
G01*
X51950000Y-91600000D02*
G75*
G02*
X46950000Y-91600000I-2500000J0D01*
G01*
X46950000Y-91600000D02*
G75*
G02*
X51950000Y-91600000I2500000J0D01*
G01*
X94550000Y-94850000D02*
X46200000Y-94850000D01*
X46200000Y-94850000D02*
X46200000Y-14900000D01*
X46200000Y-14900000D02*
X94550000Y-14900000D01*
M02*
