%TF.GenerationSoftware,KiCad,Pcbnew,10.0.4*%
%TF.CreationDate,2026-07-14T22:30:53+02:00*%
%TF.ProjectId,monitoring v0.2,6d6f6e69-746f-4726-996e-672076302e32,rev?*%
%TF.SameCoordinates,Original*%
%TF.FileFunction,Soldermask,Bot*%
%TF.FilePolarity,Negative*%
%FSLAX46Y46*%
G04 Gerber Fmt 4.6, Leading zero omitted, Abs format (unit mm)*
G04 Created by KiCad (PCBNEW 10.0.4) date 2026-07-14 22:30:53*
%MOMM*%
%LPD*%
G01*
G04 APERTURE LIST*
G04 Aperture macros list*
%AMRoundRect*
0 Rectangle with rounded corners*
0 $1 Rounding radius*
0 $2 $3 $4 $5 $6 $7 $8 $9 X,Y pos of 4 corners*
0 Add a 4 corners polygon primitive as box body*
4,1,4,$2,$3,$4,$5,$6,$7,$8,$9,$2,$3,0*
0 Add four circle primitives for the rounded corners*
1,1,$1+$1,$2,$3*
1,1,$1+$1,$4,$5*
1,1,$1+$1,$6,$7*
1,1,$1+$1,$8,$9*
0 Add four rect primitives between the rounded corners*
20,1,$1+$1,$2,$3,$4,$5,0*
20,1,$1+$1,$4,$5,$6,$7,0*
20,1,$1+$1,$6,$7,$8,$9,0*
20,1,$1+$1,$8,$9,$2,$3,0*%
G04 Aperture macros list end*
%ADD10C,0.010000*%
%ADD11C,1.700000*%
%ADD12R,1.700000X1.700000*%
%ADD13C,2.000000*%
%ADD14C,2.004000*%
%ADD15RoundRect,0.102000X-0.900000X-0.900000X0.900000X-0.900000X0.900000X0.900000X-0.900000X0.900000X0*%
%ADD16C,1.712000*%
%ADD17RoundRect,0.102000X0.754000X-0.754000X0.754000X0.754000X-0.754000X0.754000X-0.754000X-0.754000X0*%
%ADD18RoundRect,0.102000X0.975000X-0.975000X0.975000X0.975000X-0.975000X0.975000X-0.975000X-0.975000X0*%
%ADD19C,2.154000*%
%ADD20RoundRect,0.250001X1.149999X1.149999X-1.149999X1.149999X-1.149999X-1.149999X1.149999X-1.149999X0*%
%ADD21C,2.800000*%
%ADD22RoundRect,0.675000X-0.675000X-0.675000X0.675000X-0.675000X0.675000X0.675000X-0.675000X0.675000X0*%
%ADD23C,2.700000*%
G04 APERTURE END LIST*
D10*
%TO.C,U2*%
X49812375Y-58675000D02*
X49812375Y-53475000D01*
X53012375Y-53475000D01*
X53012375Y-58675000D01*
X49812375Y-58675000D01*
G36*
X53012375Y-58675000D02*
G01*
X49812375Y-58675000D01*
X49812375Y-53475000D01*
X53012375Y-53475000D01*
X53012375Y-58675000D01*
G37*
X57012375Y-58675000D02*
X57012375Y-53475000D01*
X60212375Y-53475000D01*
X60212375Y-58675000D01*
X57012375Y-58675000D01*
G36*
X60212375Y-58675000D02*
G01*
X57012375Y-58675000D01*
X57012375Y-53475000D01*
X60212375Y-53475000D01*
X60212375Y-58675000D01*
G37*
X57012375Y-27125000D02*
X57012375Y-21925000D01*
X60212375Y-21925000D01*
X60212375Y-27125000D01*
X57012375Y-27125000D01*
G36*
X60212375Y-27125000D02*
G01*
X57012375Y-27125000D01*
X57012375Y-21925000D01*
X60212375Y-21925000D01*
X60212375Y-27125000D01*
G37*
X49812375Y-27125000D02*
X49812375Y-21925000D01*
X53012375Y-21925000D01*
X53012375Y-27125000D01*
X49812375Y-27125000D01*
G36*
X53012375Y-27125000D02*
G01*
X49812375Y-27125000D01*
X49812375Y-21925000D01*
X53012375Y-21925000D01*
X53012375Y-27125000D01*
G37*
%TD*%
D11*
%TO.C,J2*%
X49500000Y-68620000D03*
X49500000Y-66080000D03*
X49500000Y-63540000D03*
D12*
X49500000Y-61000000D03*
%TD*%
D13*
%TO.C,U1*%
X112570400Y-75070800D03*
X112570400Y-18270800D03*
X134770400Y-75070800D03*
X134770400Y-18270800D03*
D14*
X134920400Y-38150800D03*
X134920400Y-40690800D03*
X134920400Y-43230800D03*
X134920400Y-45770800D03*
X134920400Y-48310800D03*
X134920400Y-50850800D03*
X134920400Y-53390800D03*
X134920400Y-55930800D03*
X134920400Y-58470800D03*
X134920400Y-61010800D03*
X134920400Y-63550800D03*
X134920400Y-66090800D03*
X134920400Y-68630800D03*
X134920400Y-71170800D03*
X112420400Y-71170800D03*
X112420400Y-68630800D03*
X112420400Y-66090800D03*
X112420400Y-63550800D03*
X112420400Y-61010800D03*
X112420400Y-58470800D03*
X112420400Y-55930800D03*
X112420400Y-53390800D03*
X112420400Y-50850800D03*
X112420400Y-48310800D03*
X112420400Y-45770800D03*
X112420400Y-43230800D03*
X112420400Y-40690800D03*
X112420400Y-38150800D03*
X112420400Y-35610800D03*
X112420400Y-33070800D03*
X112420400Y-30530800D03*
D15*
X112420400Y-27990800D03*
%TD*%
D16*
%TO.C,T1*%
X66350000Y-74500000D03*
X66350000Y-84500000D03*
X53650000Y-74500000D03*
D17*
X53650000Y-84500000D03*
%TD*%
D18*
%TO.C,PS1*%
X75600000Y-66750000D03*
D19*
X83400000Y-66750000D03*
X68200000Y-24250000D03*
X90800000Y-24250000D03*
%TD*%
D20*
%TO.C,J1*%
X83058000Y-89535000D03*
D21*
X78058000Y-89535000D03*
%TD*%
D22*
%TO.C,F1*%
X70600000Y-74000000D03*
X77360000Y-74000000D03*
D23*
X84640000Y-74000000D03*
X91400000Y-74000000D03*
%TD*%
D12*
%TO.C,J3*%
X98973400Y-60959800D03*
D11*
X98973400Y-63499800D03*
X98973400Y-66039800D03*
X98973400Y-68579800D03*
%TD*%
M02*
